<svg width="166" height="31" viewBox="0 0 166 31" fill="none" xmlns="http://www.w3.org/2000/svg">
<path d="M10.9545 30H0.201705V0.90909H10.9403C13.9044 0.90909 16.4564 1.49148 18.5966 2.65625C20.7462 3.81155 22.4034 5.47822 23.5682 7.65625C24.733 9.82481 25.3153 12.4195 25.3153 15.4403C25.3153 18.4706 24.733 21.0748 23.5682 23.2528C22.4129 25.4309 20.7604 27.1023 18.6108 28.267C16.4612 29.4223 13.9091 30 10.9545 30ZM7.23295 24.0057H10.6847C12.3134 24.0057 13.6913 23.7311 14.8182 23.1818C15.9545 22.6231 16.8116 21.7188 17.3892 20.4688C17.9763 19.2093 18.2699 17.5331 18.2699 15.4403C18.2699 13.3475 17.9763 11.6809 17.3892 10.4403C16.8021 9.19034 15.9356 8.29072 14.7898 7.74148C13.6534 7.18276 12.2519 6.90341 10.5852 6.90341H7.23295V24.0057ZM48.5114 10.4119C48.3504 9.81534 48.1136 9.28977 47.8011 8.83523C47.4886 8.37121 47.1051 7.97822 46.6506 7.65625C46.196 7.33428 45.6752 7.0928 45.0881 6.93182C44.5009 6.76136 43.857 6.67614 43.1562 6.67614C41.7453 6.67614 40.5237 7.01704 39.4915 7.69886C38.4688 8.38068 37.678 9.375 37.1193 10.6818C36.5606 11.9792 36.2812 13.5559 36.2812 15.4119C36.2812 17.2775 36.5511 18.8684 37.0909 20.1847C37.6307 21.5009 38.4119 22.5047 39.4347 23.196C40.4574 23.8873 41.6979 24.233 43.1562 24.233C44.4441 24.233 45.5331 24.0246 46.4233 23.608C47.3229 23.1818 48.0047 22.5805 48.4688 21.804C48.9328 21.0275 49.1648 20.1136 49.1648 19.0625L50.4716 19.2188H43.3977V14.0909H55.9403V17.9403C55.9403 20.5445 55.3864 22.7746 54.2784 24.6307C53.1799 26.4867 51.6648 27.9119 49.733 28.9062C47.8106 29.9006 45.5994 30.3977 43.0994 30.3977C40.3248 30.3977 37.8864 29.7964 35.7841 28.5938C33.6818 27.3911 32.0436 25.6771 30.8693 23.4517C29.6951 21.2169 29.108 18.5653 29.108 15.4972C29.108 13.1108 29.4631 10.9943 30.1733 9.14773C30.8835 7.29167 31.8731 5.7197 33.142 4.43182C34.4205 3.14394 35.8977 2.16856 37.5739 1.50568C39.2595 0.842802 41.0729 0.511363 43.0142 0.511363C44.6998 0.511363 46.267 0.75284 47.7159 1.2358C49.1742 1.71875 50.4621 2.40057 51.5795 3.28125C52.7064 4.16193 53.6203 5.20833 54.321 6.42045C55.0218 7.63258 55.4574 8.96307 55.6278 10.4119H48.5114ZM70.2692 30.4119C67.9775 30.4119 66.0078 29.9432 64.3601 29.0057C62.7218 28.0587 61.4576 26.7424 60.5675 25.0568C59.6868 23.3617 59.2464 21.3968 59.2464 19.1619C59.2464 16.9176 59.6868 14.9527 60.5675 13.267C61.4576 11.572 62.7218 10.2557 64.3601 9.31818C66.0078 8.37121 67.9775 7.89773 70.2692 7.89773C72.5608 7.89773 74.5258 8.37121 76.1641 9.31818C77.8118 10.2557 79.076 11.572 79.9567 13.267C80.8468 14.9527 81.2919 16.9176 81.2919 19.1619C81.2919 21.3968 80.8468 23.3617 79.9567 25.0568C79.076 26.7424 77.8118 28.0587 76.1641 29.0057C74.5258 29.9432 72.5608 30.4119 70.2692 30.4119ZM70.3118 25.1705C71.1451 25.1705 71.8506 24.9148 72.4283 24.4034C73.0059 23.892 73.4463 23.1818 73.7493 22.2727C74.0618 21.3636 74.218 20.3125 74.218 19.1193C74.218 17.9072 74.0618 16.8466 73.7493 15.9375C73.4463 15.0284 73.0059 14.3182 72.4283 13.8068C71.8506 13.2955 71.1451 13.0398 70.3118 13.0398C69.45 13.0398 68.7209 13.2955 68.1243 13.8068C67.5372 14.3182 67.0874 15.0284 66.7749 15.9375C66.4718 16.8466 66.3203 17.9072 66.3203 19.1193C66.3203 20.3125 66.4718 21.3636 66.7749 22.2727C67.0874 23.1818 67.5372 23.892 68.1243 24.4034C68.7209 24.9148 69.45 25.1705 70.3118 25.1705ZM84.8501 30V8.18182H91.4553V12.1875H91.6967C92.1513 10.8617 92.9183 9.81534 93.9979 9.0483C95.0774 8.28125 96.3653 7.89773 97.8615 7.89773C99.3767 7.89773 100.674 8.28598 101.754 9.0625C102.833 9.83902 103.52 10.8807 103.813 12.1875H104.04C104.448 10.8902 105.243 9.85322 106.427 9.0767C107.611 8.29072 109.007 7.89773 110.617 7.89773C112.682 7.89773 114.358 8.56061 115.646 9.88636C116.933 11.2027 117.577 13.0114 117.577 15.3125V30H110.631V16.9034C110.631 15.8144 110.352 14.9858 109.793 14.4176C109.235 13.84 108.51 13.5511 107.62 13.5511C106.664 13.5511 105.911 13.8636 105.362 14.4886C104.822 15.1042 104.552 15.9328 104.552 16.9744V30H97.8757V16.8324C97.8757 15.8191 97.6011 15.0189 97.0518 14.4318C96.5026 13.8447 95.7782 13.5511 94.8786 13.5511C94.2725 13.5511 93.7375 13.6979 93.2734 13.9915C92.8094 14.2756 92.4448 14.6828 92.1797 15.2131C91.924 15.7434 91.7962 16.3684 91.7962 17.0881V30H84.8501ZM132.08 30.4119C129.798 30.4119 127.828 29.9621 126.171 29.0625C124.523 28.1534 123.254 26.8608 122.364 25.1847C121.484 23.4991 121.043 21.4962 121.043 19.1761C121.043 16.9223 121.488 14.9527 122.379 13.267C123.269 11.572 124.523 10.2557 126.143 9.31818C127.762 8.37121 129.67 7.89773 131.867 7.89773C133.42 7.89773 134.841 8.1392 136.129 8.62216C137.416 9.10511 138.529 9.82008 139.467 10.767C140.404 11.714 141.133 12.8835 141.654 14.2756C142.175 15.6581 142.435 17.2443 142.435 19.0341V20.767H123.472V16.733H135.972C135.963 15.9943 135.788 15.3362 135.447 14.7585C135.106 14.1809 134.637 13.7311 134.04 13.4091C133.453 13.0777 132.776 12.9119 132.009 12.9119C131.233 12.9119 130.537 13.0871 129.921 13.4375C129.306 13.7784 128.818 14.2472 128.458 14.8438C128.098 15.4309 127.909 16.0985 127.89 16.8466V20.9517C127.89 21.8419 128.065 22.6231 128.415 23.2955C128.766 23.9583 129.263 24.4744 129.907 24.8438C130.551 25.2131 131.318 25.3977 132.208 25.3977C132.824 25.3977 133.382 25.3125 133.884 25.142C134.386 24.9716 134.817 24.7206 135.177 24.3892C135.537 24.0578 135.807 23.6506 135.987 23.1676L142.364 23.3523C142.099 24.7822 141.517 26.0275 140.617 27.0881C139.727 28.1392 138.558 28.9583 137.109 29.5455C135.66 30.1231 133.984 30.4119 132.08 30.4119ZM165.031 14.8438L158.653 15.0142C158.587 14.5597 158.407 14.1572 158.114 13.8068C157.82 13.447 157.437 13.1676 156.963 12.9688C156.499 12.7604 155.959 12.6562 155.344 12.6562C154.539 12.6562 153.852 12.8172 153.284 13.1392C152.725 13.4612 152.451 13.8968 152.46 14.446C152.451 14.8722 152.621 15.2415 152.972 15.554C153.331 15.8665 153.971 16.1174 154.889 16.3068L159.094 17.1023C161.272 17.5189 162.891 18.2102 163.952 19.1761C165.022 20.142 165.562 21.4205 165.571 23.0114C165.562 24.5076 165.116 25.8097 164.236 26.9176C163.365 28.0256 162.171 28.8873 160.656 29.5028C159.141 30.1089 157.408 30.4119 155.457 30.4119C152.342 30.4119 149.884 29.7727 148.085 28.4943C146.295 27.2064 145.273 25.483 145.017 23.3239L151.878 23.1534C152.029 23.9489 152.422 24.5549 153.057 24.9716C153.691 25.3883 154.501 25.5966 155.486 25.5966C156.376 25.5966 157.1 25.4309 157.659 25.0994C158.218 24.768 158.502 24.3277 158.511 23.7784C158.502 23.286 158.284 22.893 157.858 22.5994C157.432 22.2964 156.764 22.0597 155.855 21.8892L152.048 21.1648C149.861 20.767 148.232 20.0331 147.162 18.9631C146.092 17.8835 145.562 16.5104 145.571 14.8438C145.562 13.3854 145.95 12.1402 146.736 11.108C147.522 10.0663 148.639 9.27083 150.088 8.72159C151.537 8.17235 153.246 7.89773 155.216 7.89773C158.17 7.89773 160.5 8.51799 162.205 9.75852C163.909 10.9896 164.851 12.6847 165.031 14.8438Z" fill="black"/>
</svg>
